<svg width="30" height="30" viewBox="0 0 30 30" fill="none" xmlns="http://www.w3.org/2000/svg">
<path d="M20.6938 0H8.47292C3.16458 0 0 3.16458 0 8.47292V20.6792C0 26.0021 3.16458 29.1667 8.47292 29.1667H20.6792C25.9875 29.1667 29.1521 26.0021 29.1521 20.6938V8.47292C29.1667 3.16458 26.0021 0 20.6938 0ZM14.5833 20.2417C11.4625 20.2417 8.925 17.7042 8.925 14.5833C8.925 11.4625 11.4625 8.925 14.5833 8.925C17.7042 8.925 20.2417 11.4625 20.2417 14.5833C20.2417 17.7042 17.7042 20.2417 14.5833 20.2417ZM23.2167 7.11667C23.1438 7.29167 23.0417 7.45208 22.9104 7.59792C22.7646 7.72917 22.6042 7.83125 22.4292 7.90417C22.1638 8.01682 21.8708 8.04786 21.5877 7.99331C21.3046 7.93877 21.0441 7.80111 20.8396 7.59792C20.7083 7.45208 20.6063 7.29167 20.5333 7.11667C20.4584 6.9414 20.4188 6.75309 20.4167 6.5625C20.4167 6.37292 20.4604 6.18333 20.5333 6.00833C20.6063 5.81875 20.7083 5.67292 20.8396 5.52708C21.175 5.19167 21.6854 5.03125 22.1521 5.13333C22.2542 5.14792 22.3417 5.17708 22.4292 5.22083C22.5167 5.25 22.6042 5.29375 22.6917 5.35208C22.7646 5.39583 22.8375 5.46875 22.9104 5.52708C23.0417 5.67292 23.1438 5.81875 23.2167 6.00833C23.2896 6.18333 23.3333 6.37292 23.3333 6.5625C23.3333 6.75208 23.2896 6.94167 23.2167 7.11667Z" fill="white"/>
</svg>
