<svg width="29" height="30" viewBox="0 0 29 30" fill="none" xmlns="http://www.w3.org/2000/svg">
<path fill-rule="evenodd" clip-rule="evenodd" d="M27 0H3.81C3.315 0 2.835 0.255 2.565 0.675L0.255 4.125C0.0901568 4.36867 0.00140373 4.65581 0 4.95V24C0 24.825 0.675 25.5 1.5 25.5H4.5C5.325 25.5 6 26.175 6 27V28.5C6 29.325 6.675 30 7.5 30H9.69C10.185 30 10.665 29.745 10.935 29.325L13.05 26.16C13.335 25.74 13.8 25.485 14.295 25.485H20.37C20.775 25.485 21.15 25.32 21.435 25.05L28.05 18.435C28.1897 18.2953 28.3001 18.1292 28.3748 17.9463C28.4495 17.7635 28.487 17.5675 28.485 17.37V1.5C28.5 0.675 27.825 0 27 0ZM12.435 16.29C12.435 16.77 12.045 17.145 11.58 17.145H9.87C9.64324 17.145 9.42577 17.0549 9.26542 16.8946C9.10508 16.7342 9.015 16.5168 9.015 16.29V7.725C9.015 7.245 9.405 6.87 9.87 6.87H11.58C12.06 6.87 12.435 7.26 12.435 7.725V16.29ZM21 16.29C21 16.77 20.61 17.145 20.145 17.145H18.435C18.3227 17.145 18.2115 17.1229 18.1078 17.0799C18.0041 17.0369 17.9098 16.974 17.8304 16.8946C17.751 16.8152 17.6881 16.7209 17.6451 16.6172C17.6021 16.5135 17.58 16.4023 17.58 16.29V7.725C17.58 7.245 17.97 6.87 18.435 6.87H20.145C20.625 6.87 21 7.26 21 7.725V16.29Z" fill="white"/>
</svg>
